<svg width="26" height="26" viewBox="0 0 26 26" fill="none" xmlns="http://www.w3.org/2000/svg">
<g clip-path="url(#clip0_6_94)">
<path d="M14.0833 21.6667L21.6667 14.0833" stroke="#0059AC" stroke-width="2" stroke-linecap="round" stroke-linejoin="round"/>
<path d="M14.0833 21.6667V15.1667C14.0833 14.8793 14.1975 14.6038 14.4006 14.4006C14.6038 14.1975 14.8793 14.0833 15.1667 14.0833H21.6667V6.5C21.6667 5.92536 21.4384 5.37426 21.0321 4.96793C20.6257 4.56161 20.0746 4.33333 19.5 4.33333H6.49999C5.92536 4.33333 5.37426 4.56161 4.96793 4.96793C4.5616 5.37426 4.33333 5.92536 4.33333 6.5V19.5C4.33333 20.0746 4.5616 20.6257 4.96793 21.0321C5.37426 21.4384 5.92536 21.6667 6.49999 21.6667H14.0833Z" stroke="#0059AC" stroke-width="2" stroke-linecap="round" stroke-linejoin="round"/>
</g>
<defs>
<clipPath id="clip0_6_94">
<rect width="26" height="26" fill="white"/>
</clipPath>
</defs>
</svg>
