<svg width="216" height="216" viewBox="0 0 216 216" fill="none" xmlns="http://www.w3.org/2000/svg">
<path d="M108 212C165.438 212 212 165.438 212 108C212 50.5624 165.438 4 108 4C50.5624 4 4 50.5624 4 108C4 165.438 50.5624 212 108 212Z" fill="url(#paint0_linear_10_466)" stroke="url(#paint1_linear_10_466)" stroke-width="8"/>
<line x1="28.6135" y1="54.5506" x2="88.6135" y2="38.5506" stroke="white" stroke-width="3"/>
<line x1="88.1122" y1="38.5042" x2="128.112" y2="41.5042" stroke="white" stroke-width="3"/>
<line x1="127.329" y1="41.6584" x2="157.329" y2="26.6584" stroke="white" stroke-width="3"/>
<path d="M84.2296 28.852C82.7569 29.3122 81.2186 29.5239 79.6973 29.7585C79.303 29.8193 74.1659 30.4626 74.099 30.1949C74.0259 29.9027 76.5328 28.8391 76.8016 28.7765C77.624 28.5849 78.4499 28.4191 79.2608 28.1805C79.3115 28.1656 80.2503 27.7962 80.2345 27.8952C80.1569 28.3802 79.1486 28.6314 78.8244 28.7345C77.0877 29.2867 75.2619 29.5635 73.4695 29.8592C70.4306 30.3604 67.3841 30.8403 64.3209 31.1685C62.6004 31.3529 60.875 31.433 59.1758 31.7728C56.8839 32.2312 63.7149 30.6476 66.0079 30.1949C68.6375 29.6758 71.284 29.2757 73.9227 28.81C74.4071 28.7246 75.6718 28.676 76.1553 28.3652C76.5131 28.1352 75.3019 28.2983 74.8796 28.3484C71.8194 28.7113 68.7609 29.1645 65.7142 29.6242C64.17 29.8571 62.6263 30.0517 61.1818 30.6649C60.0435 31.1482 61.4658 29.996 61.6938 29.8088C63.1278 28.6317 64.8072 27.5315 65.9827 26.0738C67.1383 24.641 64.4609 25.8764 64.1027 26.0486C62.48 26.8289 60.3715 27.835 59.1842 29.2381C58.6343 29.888 61.4193 29.1218 61.6518 29.0534C62.3992 28.8336 63.136 28.5454 63.8593 28.2561C64.2539 28.0982 64.5211 27.8866 63.8677 28.0966C58.8383 29.7132 53.7439 31.324 48.9193 33.4851C46.9539 34.3654 44.5274 35.2635 42.8678 36.7081C41.9544 37.503 43.9246 37.0071 44.068 36.9682C46.0686 36.4264 48.6512 35.2511 50.1028 33.7201C50.38 33.4277 50.8913 32.3634 50.8414 32.7632C50.5207 35.3288 48.1306 37.7715 46.5356 39.6205C45.1566 41.2192 43.5061 43.2885 41.5836 44.2955C41.1464 44.5245 41.5931 43.9549 41.6424 43.9095C42.4998 43.118 43.4658 42.382 44.3954 41.6769C44.7318 41.4216 45.8877 40.9457 45.4697 41.0054C45.0817 41.0608 44.6576 41.5159 44.3618 41.7272C41.8039 43.5543 38.6762 44.3058 36.1028 46.0665C35.5913 46.4165 34.1294 47.3667 33.9374 48.0389C33.832 48.4079 33.9206 48.9243 33.9206 49.2979C33.9206 50.2293 34.0611 50.1302 34.8858 50.3135C36.0171 50.5649 37.5021 49.8755 38.6712 49.5833C39.9763 49.257 41.9555 48.8645 43.0692 48.0054C43.4679 47.6978 43.6745 47.2287 44.1603 47.0149C45.4895 46.4301 41.2562 46.9496 39.8043 46.973C38.6894 46.991 37.5769 46.9759 36.4637 47.0485C36.3879 47.0535 36.1684 47.0559 36.2371 47.0233C36.4912 46.903 37.0775 46.7502 37.2443 46.7044C42.414 45.2862 47.7462 44.6589 53.0068 43.6744C54.1794 43.455 55.3086 43.2336 56.448 42.8855C56.6143 42.8347 57.1056 42.7452 56.9684 42.8519C55.4798 44.0097 53.6493 44.2131 51.8905 44.7068C51.2247 44.8937 50.2569 45.0376 51.5128 44.7236C52.4362 44.4927 53.4399 44.5012 54.3833 44.413C55.1011 44.346 56.4073 44.0042 57.1195 44.2955C57.3238 44.3791 56.7535 44.5489 56.5488 44.6313C55.818 44.9253 55.0989 45.0028 54.3162 45.0509C52.5312 45.1606 50.7485 45.1684 48.9613 45.1684C48.5148 45.1684 48.1561 45.065 47.8953 45.4706C47.7352 45.7196 46.8668 45.7914 47.1315 45.9238C47.5365 46.1263 48.5857 45.9289 49.0284 45.9238C49.7646 45.9155 50.4824 45.7728 51.2191 45.7728C51.8916 45.7728 52.0329 45.1164 52.5955 44.8663C53.2609 44.5706 54.2782 43.4256 54.5847 42.7512C54.9525 41.9421 53.4742 42.1386 53.1411 42.1469C50.5725 42.2107 48.3217 43.1306 45.9817 44.0857C44.3333 44.7585 46.3403 42.7257 46.6867 42.3651C47.5956 41.4191 48.6959 40.1026 48.7263 38.7056C48.7497 37.6274 46.4453 38.8442 46.0152 38.9742C45.2172 39.2155 44.4857 39.5611 43.7071 39.8471C43.4627 39.9369 42.7805 40.1742 42.9349 39.9646C43.2065 39.5961 43.9136 39.3923 44.2946 39.2092C45.5173 38.6221 46.7232 38 47.9541 37.4299C49.6529 36.6431 51.422 36.011 53.1075 35.1973C54.5244 34.5133 55.8535 33.6363 57.2286 32.8723C58.8261 31.9848 60.5053 31.1546 62.0211 30.1362C63.3502 29.2432 64.8806 28.3782 66.4024 27.8616C67.4222 27.5154 68.5751 27.1901 69.659 27.1901C69.9805 27.1901 69.9681 27.2662 69.7093 27.4755C68.3871 28.545 66.7167 29.2236 65.2106 29.9767C60.5949 32.2845 55.9815 34.6329 51.2946 36.792C49.3541 37.6859 55.395 35.5778 57.4804 35.1133C60.3044 34.4844 63.1241 33.8626 65.9827 33.4095C67.8431 33.1147 69.8504 32.6079 71.7405 32.5366C71.9619 32.5283 72.1317 32.5414 71.9252 32.7632C71.6263 33.0842 71.0713 33.3482 70.7249 33.5186C65.7834 35.9495 60.1996 37.4179 54.9373 38.9239C51.2163 39.9888 49.5226 40.3881 45.9397 41.3076C45.2482 41.485 44.5527 41.6475 43.8666 41.8447C43.6564 41.9052 43.3815 41.9021 43.2539 42.0797C43.0285 42.3932 44.0278 42.116 44.4121 42.0797C45.1717 42.0081 46.0046 41.8594 46.7455 41.7104C49.7301 41.1102 52.6933 40.3812 55.6591 39.696C59.2102 38.8757 62.8272 38.1474 66.2849 36.9766C66.8302 36.792 68.4518 36.2041 67.8964 36.3555C67.3061 36.5165 66.7563 36.7192 66.1926 36.9599C65.0249 37.4583 63.8119 37.8287 62.6422 38.3196C61.1614 38.941 59.8398 39.8206 58.496 40.6865C58.3743 40.7648 56.557 41.6936 57.5559 41.6936C58.8121 41.6936 59.9122 41.276 61.0979 40.9466C61.6672 40.7885 62.2061 40.5679 62.7765 40.4095C63.7524 40.1384 61.638 41.3882 61.4504 41.4754C60.4322 41.9488 59.1152 41.97 58.4792 42.9694C58.1149 43.5419 61.9929 43.2691 62.2729 43.238C63.0361 43.1532 63.322 42.8384 63.8341 42.298C64.1401 41.975 64.3214 41.7405 64.7406 41.5426C65.057 41.3931 65.5908 41.0236 65.882 40.955C66.6016 40.7857 67.1169 40.1908 67.7957 39.9143C68.4696 39.6397 69.0842 39.195 69.8017 38.9742C70.3235 38.8137 70.5033 38.5326 71.0858 38.521C71.4378 38.514 71.9327 38.4152 72.2273 38.2188C72.4758 38.0532 72.9602 37.861 73.2681 37.9335C73.9338 38.0901 71.5517 39.1106 71.4551 39.1589C70.7194 39.5267 70.0239 39.9624 69.2729 40.3004C68.7853 40.5198 69.0271 40.1825 69.2058 39.9562C69.8565 39.132 70.2638 38.2182 70.8676 37.3459C71.3382 36.6662 70.5055 37.0362 70.1542 37.2788C68.9812 38.0887 67.7903 39.1925 66.8892 40.3004C66.3008 41.0239 66.3127 41.0214 67.2249 40.7872C68.7339 40.3997 70.2747 39.9869 71.7573 39.5114C72.9602 39.1256 73.4989 39.2067 74.4096 38.3699C75.1955 37.6477 76.9611 36.7081 78.0354 36.7081C79.532 36.7081 80.8761 36.471 82.3496 36.2213C82.9663 36.1167 83.6045 35.9767 84.2296 35.9527C84.8181 35.93 85.2025 35.6358 85.7404 35.5162C86.6209 35.3206 87.3692 35.5885 88.0737 34.9623C88.2615 34.7954 88.7934 34.891 88.3591 35.1637C87.0205 36.0042 85.6228 36.2369 84.1037 36.5654C82.316 36.9519 80.8808 37.3856 79.3448 38.286C78.1949 38.9601 76.7697 38.327 75.5846 38.7392C74.6567 39.062 74.7485 38.8671 75.2657 37.967C76.4868 35.842 77.8502 33.4323 78.3208 31.0007C78.5059 30.0441 79.1028 27.9801 78.4047 27.0726C78.2147 26.8255 77.8009 26.8794 77.5318 26.888C76.015 26.9361 74.5942 27.4421 73.2429 28.105C72.8587 28.2935 68.5636 30.5391 69.894 31.5043C70.5697 31.9945 72.2023 31.4638 72.8316 31.3028C75.2129 30.6938 77.656 29.85 79.7644 28.5666C81.4268 27.5547 84.6163 24.8681 82.4335 22.8089C80.8146 21.2816 78.6172 20.9929 76.4995 21.34C74.2644 21.7065 70.9568 23.2693 70.4647 25.7969C69.9683 28.3469 75.8541 25.6142 76.5918 25.3268C77.5357 24.9591 81.7614 23.5825 81.334 21.8017C80.9141 20.0522 76.716 21.3133 75.7357 21.6002C74.2714 22.0288 71.123 23.6184 71.9755 25.7213C72.6258 27.3253 76.3502 25.436 77.1541 24.9911C77.5107 24.7938 80.5696 23.2694 79.5294 22.3892C78.8151 21.7848 77.2743 21.8566 76.4575 21.8185C73.8506 21.6966 71.1714 21.6415 68.5679 21.852C67.852 21.9099 62.5042 22.9127 64.9252 24.328C67.3926 25.7705 70.6849 25.9906 73.4611 25.7213C74.9993 25.5721 76.8605 25.1979 77.5151 23.5978C77.9571 22.5172 74.8055 23.5921 74.5606 23.665C72.6532 24.2322 70.7646 24.9439 68.9036 25.6458C67.6552 26.1166 65.8366 26.652 64.9588 27.7693C64.4406 28.4287 66.4096 28.3705 66.478 28.3736C68.9869 28.4851 71.4444 28.1212 73.906 27.6685C76.9728 27.1046 80.0161 26.4271 83.0546 25.7297C83.8827 25.5396 84.4621 25.3919 85.2704 25.2765C85.5419 25.2377 86.232 25.0233 86.0929 25.2597C85.7902 25.7744 84.6819 26.3721 84.2129 26.6362C81.9522 27.909 79.3399 28.64 76.9107 29.5067C73.9408 30.5662 70.9518 31.5894 68.0307 32.78C67.2392 33.1026 65.2376 34.1425 66.0499 34.4083C67.5979 34.9149 69.7207 34.3379 71.2453 34.1062C74.7505 33.5734 78.2589 33.129 81.7788 32.7045C84.7253 32.3492 87.6802 32.0175 90.6085 31.5294C90.8192 31.4943 92.7755 31.2039 91.3975 31.4203C86.5915 32.175 81.7696 32.7911 76.9107 33.0654C75.4169 33.1497 73.5952 32.9764 72.1266 33.3843C70.6938 33.7823 75.0982 33.2225 76.575 33.0486C84.7245 32.0889 92.8887 31.0629 100.983 29.7081C102.069 29.5263 105.34 29.1279 104.239 29.1541C102.111 29.2048 99.9066 29.8571 97.8267 30.2285C91.0361 31.4411 83.8179 32.3867 76.9107 31.7057C75.3988 31.5566 75.4873 31.2683 76.8604 30.8496C80.7658 29.6586 84.885 29.1323 88.9131 28.5498C94.2691 27.7754 110.421 26.0998 105.045 26.7201C103.52 26.8961 102.036 27.2564 100.496 27.3916C95.3927 27.8395 90.2397 28.1049 85.1193 28.2141C82.6829 28.2661 80.2456 28.2477 77.8088 28.2477C76.6617 28.2477 77.4764 28.0089 78.1529 27.8532C81.1836 27.1557 84.3845 27.1192 87.4694 26.8628C93.4631 26.3645 99.4448 25.7453 105.448 25.3604C106.347 25.3027 109.045 25.1465 108.15 25.2597C106.526 25.4653 104.88 25.5801 103.249 25.7129C99.1702 26.0451 95.0851 26.2569 90.9946 26.3676C89.9539 26.3958 87.6663 26.4347 86.4958 26.4347C85.9527 26.4347 84.3734 26.4646 84.8759 26.2585C86.8147 25.4631 89.6068 25.4507 91.6241 25.2177C97.1269 24.5822 102.658 24.2569 108.192 24.0511C110.136 23.9788 112.936 23.8807 114.957 23.9252C115.8 23.9437 118.22 24.0392 115.285 24.2609C111.421 24.5526 105.455 24.6561 101.939 24.7141C97.2098 24.7922 91.9558 25.1565 87.1841 24.6554C86.0422 24.5355 89.4616 24.3384 90.6085 24.2861C95.9472 24.0425 101.296 23.9983 106.64 24.0846C110.663 24.1496 114.885 24.0935 118.86 24.8568C120.394 25.1514 119.363 25.6935 118.516 25.9983C112.788 28.0603 106.169 27.9221 100.177 27.9455C98.694 27.9513 97.2111 27.9455 95.7284 27.9455C93.7811 27.9455 99.6234 27.9603 101.57 27.9119C108.548 27.7386 115.499 27.1977 122.486 27.3496C122.988 27.3605 123.494 27.443 122.645 27.6853C119.852 28.4834 116.896 28.7331 114.009 28.8856C107.287 29.2406 100.522 28.7717 93.8147 29.1877C90.7306 29.379 99.9908 29.4563 103.081 29.4563C106.24 29.4563 109.398 29.4563 112.557 29.4563C113.437 29.4563 115.526 29.0972 116.409 29.4899C116.575 29.5636 116.128 29.7327 115.956 29.792C115.155 30.0688 114.471 30.2009 113.614 30.346C109.851 30.9832 105.982 31.1049 102.174 31.2021C99.5953 31.2679 97.0155 31.2692 94.4358 31.2692C93.7395 31.2692 94.6663 31.2692 94.7548 31.2692C101.072 31.2692 107.323 31.31 113.606 32.0666C114.295 32.1495 116.332 32.289 115.654 32.4359C113.14 32.9806 110.446 33.0667 107.89 33.1997C97.1298 33.7595 86.3331 33.1169 75.5678 33.0822C73.6822 33.0761 71.7964 33.0822 69.9108 33.0822C69.5471 33.0822 70.6382 33.0822 71.0019 33.0822C72.0496 33.0822 81.8502 33.1613 81.8376 33.25C81.7874 33.6015 80.0411 33.8922 79.8568 33.9383C78.0543 34.3889 76.2346 34.7136 74.3928 34.9539C73.036 35.1308 71.6883 35.3165 70.3388 35.5414C69.4185 35.6948 71.1884 35.35 71.2033 35.3484C74.0283 35.0434 76.8685 34.593 79.7141 34.593C80.0323 34.593 79.1003 34.7619 78.7908 34.8364C77.1519 35.2305 75.4806 35.5131 73.8052 35.7009C73.2847 35.7592 72.296 35.974 71.7573 35.768C71.2324 35.5673 72.6144 35.0091 73.1338 34.7944C76.2595 33.5022 79.6392 32.7099 82.9203 31.9407C89.9882 30.2836 97.1568 28.9716 104.348 27.9875C109.059 27.3428 113.791 26.7994 118.524 26.3424C118.773 26.3184 119.475 26.256 119.271 26.4012C118.585 26.8911 117.749 27.2444 116.963 27.5259C113.545 28.7502 109.898 29.4412 106.321 29.9935C102.986 30.5082 99.6224 30.9129 96.2655 31.2525C95.4508 31.3349 92.9959 31.4203 93.8147 31.4203C99.9478 31.4203 106.047 31.5819 112.171 31.9407C113.803 32.0364 115.477 32.069 117.098 32.3184C117.623 32.3992 116.833 32.635 116.728 32.6625C115.515 32.9811 114.212 33.0206 112.968 33.0822C107.783 33.3386 102.561 33.2646 97.3734 33.1325C93.0024 33.0212 88.6278 32.4947 84.2548 32.4947C80.8028 32.4947 91.1069 33.3886 94.5533 33.5858C102.142 34.02 109.747 34.1847 117.333 34.6769C117.599 34.6942 118.647 34.5948 118.944 34.7776C119.426 35.0741 117.843 35.051 117.282 35.1217C111.929 35.7965 106.338 35.1307 100.999 34.6601C97.8538 34.3828 94.717 34.0005 91.5653 33.7956C90.6354 33.7352 87.8581 33.7134 88.7788 33.569C90.0251 33.3735 91.4725 33.5712 92.7068 33.6361C96.878 33.8557 101.044 34.184 105.213 34.4419C108.661 34.6552 112.164 35.0462 115.62 35.0462C122.889 35.0462 101.071 34.8544 93.8147 35.2812C91.3766 35.4246 88.9316 35.6337 86.4874 35.6337C85.2576 35.6337 87.3265 35.4939 87.3687 35.491C91.4233 35.2177 95.4871 35.03 99.5389 34.7105C99.9287 34.6797 105.434 34.1918 104.726 33.3675C104.05 32.5812 102.96 32.1817 101.99 31.9407C96.3693 30.5447 90.3623 30.1278 84.6409 29.4311C82.3534 29.1526 74.249 28.195 71.7405 27.8952C70.3023 27.7232 68.8619 27.5678 67.4264 27.3748C66.9058 27.3048 66.327 27.3716 65.8736 27.1062C65.622 26.9589 66.447 26.9894 66.7381 26.9719C67.7552 26.9109 68.7749 26.9054 69.7933 26.8712C72.8806 26.7675 75.0064 26.6976 78.1278 26.569C83.8965 26.3314 89.6669 26.0511 95.4178 25.5283C98.8311 25.218 102.232 24.7741 105.649 24.5043C105.836 24.4895 106.383 24.4588 106.203 24.4036C105.044 24.0468 103.659 24.1416 102.477 24.0678C95.8895 23.657 89.3542 22.775 82.7524 22.5235C82.7439 22.5232 81.2914 22.56 82.2488 22.3472C83.7736 22.0084 85.3606 21.9065 86.8987 21.6338C89.7291 21.1321 92.5275 20.4691 95.3591 19.9719C96.8194 19.7156 97.7863 19.5678 99.22 19.3844C99.8451 19.3045 101.725 19.2612 101.1 19.183C100.328 19.0865 99.3738 19.2964 98.6156 19.3676C95.9412 19.6189 93.2728 19.9285 90.5917 20.1062C88.6686 20.2337 86.7376 20.2279 84.8172 20.3916C82.5861 20.5818 86.5967 20.2383 86.7476 20.2237C88.979 20.0078 91.1947 19.6902 93.4202 19.4264C94.9184 19.2488 96.6331 19.3256 98.0953 18.9144C98.6233 18.7659 96.9978 18.9173 96.4502 18.948C93.2284 19.1282 90.0163 19.183 86.7896 19.183C84.9822 19.183 83.1749 19.183 81.3675 19.183C80.6551 19.183 82.7886 19.0796 83.4994 19.0319C86.4732 18.8323 89.4906 18.5787 92.4718 18.5787C92.7551 18.5787 91.9098 18.6547 91.6325 18.713C89.6696 19.1251 87.7171 19.595 85.7572 20.0223C84.052 20.3941 82.3444 20.7511 80.6373 21.1134C80.0956 21.2284 79.087 21.3 78.6146 21.6674C77.651 22.4168 80.9218 20.8641 82.0474 20.3916C82.2401 20.3107 85.5668 18.6319 85.4886 18.5451C85.2964 18.3315 84.4976 18.4513 84.3136 18.4612C82.5241 18.557 80.7385 18.765 78.9503 18.8892C77.812 18.9683 76.6853 19.082 75.5678 19.3173C74.9177 19.4541 75.7548 19.4718 75.9203 19.4516C77.1426 19.3019 78.3414 18.889 79.5462 18.6458C81.4091 18.2698 83.2909 18.134 85.1697 17.8736C87.5945 17.5377 89.9505 17.01 92.3039 16.4048C95.4427 15.5977 98.5248 14.6694 101.771 14.3821C103.195 14.256 104.027 14.1902 105.322 14.7178C106.47 15.1855 107.791 15.4159 109.006 15.6243C109.843 15.7677 110.73 16.1614 111.575 16.1614C112.567 16.1614 113.481 16.4794 114.454 16.6063C115.616 16.7579 116.767 16.7657 117.937 16.7657C119.001 16.7657 120.791 16.95 121.747 16.3125C122.134 16.0545 120.382 16.2642 120.169 16.3125C118.306 16.736 115.922 16.6262 114.026 16.3964C113.404 16.3211 111.536 16.1614 112.162 16.1614C113.534 16.1614 114.842 15.6251 116.208 15.4984C116.927 15.4317 118.985 15.099 118.373 15.4816C118.015 15.7056 117.115 15.555 116.72 15.5655C115.003 15.6113 113.294 15.7082 111.575 15.7082C111.096 15.7082 110.633 15.6872 110.165 15.8089C108.262 16.303 106.467 16.7996 104.516 17.135C103.756 17.2657 100.051 17.9914 100.093 19.2166C100.102 19.4863 100.279 19.8169 100.529 19.9384C101.077 20.2047 102.034 20.3068 102.544 20.358C105.021 20.6069 107.55 20.6916 110.039 20.635C110.66 20.6209 113.281 20.8217 113.497 19.6698C113.621 19.0098 112.689 18.8362 112.246 18.7297C107.409 17.566 102.02 17.5806 97.0881 17.7393C96.6561 17.7533 94.603 17.6024 94.184 18.1758C93.7903 18.7146 94.6358 19.4069 94.973 19.6698C96.0776 20.531 97.3414 20.8314 98.7164 20.9624C100.932 21.1733 103.235 21.2627 105.456 21.105C106.078 21.0609 110.192 20.7492 109.393 19.1494C109.144 18.6517 108.413 18.6283 107.949 18.5787C105.673 18.3356 103.369 18.1855 101.083 18.0751C100.006 18.023 93.9354 17.29 94.7128 19.9552C95.6602 23.2033 102.189 22.9989 104.558 23.0439C107.729 23.104 110.771 22.5512 113.824 21.7345C114.824 21.4671 117.408 21.1157 118.105 20.0895C118.992 18.7812 117.467 18.4066 116.376 18.4276C115.361 18.4471 114.23 19.1944 113.673 20.0223C112.89 21.1862 116.743 20.5348 116.905 20.5175C118.628 20.3324 120.344 20.0794 122.066 19.888C122.451 19.8453 123.196 19.6688 123.602 19.8041C123.953 19.9211 123.086 20.3367 122.797 20.5679C121.756 21.4002 120.678 22.1869 119.699 23.0942C119.346 23.4221 117.573 24.685 118.86 24.5211C120.467 24.3166 122.037 24.0175 123.661 24.0175" stroke="white" stroke-width="4" stroke-linecap="round"/>
<path d="M46.0068 48.0388C46.0164 47.7334 46.0223 47.5412 46.1999 47.3002C46.4791 46.9213 47.0644 45.7133 47.0644 46.1839C47.0644 46.3613 46.9133 47.0968 46.9133 46.9813" stroke="white" stroke-width="4" stroke-linecap="round"/>
<path d="M115.654 30.6649C116.582 30.7021 117.248 31.1735 118.172 31.3364C119.687 31.6034 122.021 32.265 123.51 31.4791C125.293 30.5382 123.79 29.8458 122.394 29.6997C120.946 29.5482 119.334 29.4783 118.038 30.2453C117.195 30.7438 116.132 31.8524 116.93 32.8639C117.255 33.2769 117.792 33.424 118.281 33.5186C119.824 33.8172 121.5 33.8712 123.065 33.7872C124.764 33.696 127.163 33.1211 128.445 31.8735C130.208 30.1587 125.281 29.1 124.467 29.0282C122.341 28.8407 120.889 31.9488 123.443 32.2848C125.45 32.549 127.591 32.0486 129.503 31.4958C130.823 31.1143 132.861 30.6415 133.599 29.3052C134.988 26.7875 129.788 24.9648 128.21 24.5379C127.009 24.2127 126.028 24.1362 126.246 25.6626C126.515 27.5465 131.535 25.2656 132.306 24.798C133.844 23.8663 132.134 22.4495 131.333 21.7177C129.838 20.3524 127.898 19.6006 126.045 18.9144C125.616 18.7554 125.205 18.793 124.929 18.4108C124.532 17.8623 124.051 17.5558 123.426 17.3365C123.315 17.2973 122.923 16.9655 122.923 16.8329C122.923 16.6352 124.4 16.3264 124.601 16.3125C125.547 16.2473 126.5 16.3096 127.405 16.5811C128.015 16.7643 128.589 16.7451 129.217 16.7657C129.655 16.7801 130.031 17.0459 130.46 17.1434C131.465 17.372 132.535 17.4319 133.557 17.5967C134.619 17.7679 135.72 17.8066 136.771 18.0079C137.726 18.1907 138.588 18.7271 139.524 18.9144C141.316 19.2728 142.708 20.5165 144.443 20.9791C146.004 21.3953 147.463 21.8741 149.009 22.3892C149.69 22.6161 150.553 23.5165 150.553 24.2525C150.553 24.8538 151.491 25.4327 151.946 25.7968C152.195 25.9958 151.519 25.7369 151.317 26.141C151.245 26.2853 151.032 26.4347 151.157 26.4347C151.34 26.4347 151.7 26.508 151.829 26.3424C152.093 26.0023 152.27 25.7728 152.668 25.5618C153.376 25.1871 151.802 25.759 151.611 25.864C150.074 26.7076 148.563 27.4115 146.919 28.0966C146.39 28.3168 145.814 28.3171 145.282 28.5498C144.907 28.7141 144.349 28.7234 144.023 28.9191C142.974 29.5483 141.848 29.8445 140.733 30.3628C139.032 31.1535 136.994 30.7936 135.328 31.5714C133.691 32.3353 132.093 32.9149 130.25 33.0654C126.347 33.384 122.395 33.3296 118.491 33.7201C118.074 33.7618 115.237 34.3543 115.066 34.0558C114.803 33.5953 115.85 32.4998 116.09 32.2596C117.729 30.6214 119.844 29.3316 121.84 28.1889C123.662 27.1454 125.472 25.9762 127.455 25.2597C128.439 24.904 129.138 24.4699 130.157 24.8232C134.306 26.2612 138.511 27.5069 142.663 28.9275C143.999 29.3843 145.325 29.8506 146.675 30.262C146.853 30.3161 148.265 30.6126 147.213 30.5474C143.677 30.3284 140.127 30.223 136.587 30.1278C134.241 30.0647 131.662 30.35 129.327 29.9851C128.594 29.8705 129.156 29.53 129.268 29.2213C129.437 28.7568 130.217 28.3613 130.56 28.063C131.785 27.0002 133.024 26.0476 134.321 25.075C134.685 24.8018 136.022 23.3184 136.562 23.4383C136.853 23.503 135.797 25.1681 135.747 25.2597C135.176 26.3148 134.431 27.3853 134.153 28.5666C133.804 30.0441 135.797 28.0291 136.1 27.7944C139.435 25.2075 143.237 23.2926 146.726 20.9288C147.136 20.6508 149.418 18.821 147.691 19.9384C146.805 20.5117 146.066 21.3144 145.207 21.936C143.235 23.362 141.144 24.6739 139.356 26.334C139.181 26.4971 137.683 28.2338 138.761 27.3664C140.488 25.9762 142.558 25.316 144.577 24.4707C145.318 24.1604 147.503 23.1436 146.759 23.4467C145.776 23.8473 145.004 24.6511 144.191 25.31C143.714 25.6963 143.228 26.0703 142.747 26.4515C142.563 26.5976 141.962 26.93 142.193 26.888C143.048 26.7325 144.069 25.6441 144.737 25.1506C145.519 24.5719 148.191 23.2817 145.836 23.2621C143.611 23.2435 141.342 23.1507 139.138 23.5055C138.936 23.538 136.14 23.9048 136.755 24.6889C137.379 25.4854 138.807 25.3809 139.675 25.3772C141.675 25.3686 144.169 25.2276 145.702 23.7321C148.444 21.0569 139.342 20.5763 138.534 20.5763C135.975 20.5763 133.556 21.1702 131.14 21.9695C129.924 22.3715 128.647 22.8402 127.807 23.8664C127.415 24.3458 129.037 24.1318 129.654 24.0762C132.096 23.8564 134.614 23.6241 136.99 22.9935C137.424 22.8783 138.441 22.7305 138.282 22.0535C138.005 20.8748 134.613 21.0033 133.842 20.9288C132.747 20.823 122.402 19.8006 123.141 22.4395C123.374 23.2722 124.122 23.2359 124.878 23.2537C126.925 23.3019 129.06 23.2316 131.047 22.6913C131.79 22.4895 131.719 22.036 131.03 21.7681C129.838 21.3043 128.096 21.6079 126.901 21.9024C126.839 21.9178 125.139 22.5637 125.306 22.6913C126.42 23.5431 128.901 23.111 130.124 23.111C134.608 23.111 139.143 23.3173 143.62 23.0439C144.419 22.9951 145.466 23.0026 146.256 22.7921C146.924 22.6138 147.347 22.0535 148.136 22.0535C149.14 22.0535 148.94 23.2751 148.74 23.9503C148.564 24.5458 148.554 25.0707 147.892 25.2177C146.556 25.5148 145.391 26.0275 144.132 26.6697C142.206 27.6527 140.75 28.9439 139.273 30.5138C138.533 31.3001 137.661 31.8879 136.981 32.738C136.72 33.064 136.389 33.1249 136.167 33.4683C135.997 33.7315 134.626 33.5466 134.304 33.6109C133.695 33.7327 133.138 33.8655 132.575 34.1397C132.527 34.1632 131.648 34.5225 131.71 34.3663C131.743 34.2852 132.592 33.756 132.684 33.6865C133.661 32.9471 134.937 32.6359 136.117 32.4107C137.114 32.2203 138.018 31.8616 138.954 31.5378C139.36 31.397 139.764 31.4203 140.187 31.4203C140.487 31.4203 139.56 31.5644 139.373 31.798C139.356 31.8199 140.157 31.314 140.582 31.2692C140.736 31.253 141.089 30.9671 140.934 30.9671C140.683 30.9671 140.579 31.2488 140.313 31.2692C139.668 31.3188 138.974 32.0603 138.374 32.3268C138.076 32.4592 137.62 33.0626 137.376 33.0822C136.795 33.1286 136.539 33.5036 136.016 33.7201C134.896 34.1836 133.855 35.1257 132.734 35.4994C132.427 35.6018 132.09 36.0753 131.819 36.1037C131.373 36.1507 131.13 36.2756 130.879 36.6409C130.751 36.8276 129.373 37.1707 129.108 37.2368C128.621 37.3587 128.098 37.3124 127.598 37.3124C127.086 37.3124 124.956 36.9914 124.601 37.3459C124.518 37.4293 125.241 37.9306 125.315 37.9922C125.733 38.3407 125.657 38.1361 126.011 37.9335C126.392 37.7158 126.955 37.2636 127.17 36.8591C127.651 35.95 126.744 35.1921 125.919 35.0546C125.438 34.9745 124.872 35.0343 124.383 35.0462C123.697 35.0629 123.897 35.5575 123.594 36.003C123.114 36.7093 122.859 37.3124 121.773 37.3124C121.505 37.3124 119.884 37.583 120.673 37.6145C121.112 37.6321 121.536 37.9167 121.999 37.9167C123.042 37.9167 121.773 37.9167 121.395 37.9167C120.988 37.9167 120.796 37.6729 120.421 37.6313C119.329 37.51 118.211 37.6714 117.114 37.5809C116.693 37.5461 115.668 37.6258 115.318 37.3459C114.939 37.0424 113.692 37.1613 113.245 37.1613C112.461 37.1613 111.691 37.0102 110.895 37.0102C109.879 37.0102 108.864 37.0102 107.848 37.0102C106.245 37.0102 104.642 37.0102 103.039 37.0102C102.576 37.0102 102.352 36.708 101.906 36.708C101.421 36.708 100.969 36.5739 100.513 36.557C99.4042 36.5159 98.2606 36.4979 97.3064 35.9527C96.3238 35.3912 95.0756 35.051 94.1673 34.3244C93.2894 33.622 94.0498 34.8184 94.0498 35.1217C94.0498 35.3094 93.9485 35.9353 94.0834 36.0702C94.332 36.3188 94.7461 36.1577 95.0402 36.2884C96.2218 36.8135 97.3485 36.3465 98.4814 35.7093C101.281 34.1342 104.07 32.4412 106.959 31.0342C107.953 30.5497 106.08 29.1339 105.674 28.7932C104.288 27.6273 102.701 26.9584 100.999 26.4347" stroke="white" stroke-width="4" stroke-linecap="round"/>
<path d="M121.093 34.744C122.444 35.4194 123.719 36.1348 125.021 36.9094C125.338 37.0981 125.994 37.2993 126.196 37.6816C126.783 38.7901 123.072 38.8231 122.486 38.8231C121.681 38.8231 122.674 39.3326 122.948 39.419C124.151 39.799 125.451 39.4609 126.641 39.2092C127.081 39.116 128.042 39.0682 128.042 38.4538C128.042 38.0308 128.009 37.8705 127.589 37.648C126.606 37.1275 124.235 35.9648 123.342 37.1277C123.155 37.3712 123.059 38.3608 123.342 38.5713C124.149 39.1709 125.348 38.0551 125.902 37.6313C126.496 37.1771 126.937 36.384 126.876 35.6085C126.693 33.2963 123.509 32.247 121.756 31.6469C116.432 29.824 110.565 28.8519 104.927 28.8519" stroke="white" stroke-width="4" stroke-linecap="round"/>
<path d="M63.7472 132.636C61.8229 132.621 59.9441 132.235 58.1108 131.477C56.2775 130.705 54.6259 129.47 53.1562 127.773C51.6866 126.061 50.5199 123.803 49.6562 121C48.7926 118.197 48.3608 114.75 48.3608 110.659C48.3608 106.871 48.6941 103.402 49.3608 100.25C50.0275 97.0985 51.0275 94.3712 52.3608 92.0682C53.6941 89.7652 55.3608 87.9848 57.3608 86.7273C59.3608 85.4545 61.7017 84.8182 64.3835 84.8182C66.8987 84.8182 69.1184 85.3409 71.0426 86.3864C72.9669 87.4167 74.5275 88.8561 75.7244 90.7045C76.9214 92.553 77.6714 94.6818 77.9744 97.0909H73.7926C73.3684 94.6364 72.3608 92.6136 70.7699 91.0227C69.179 89.4318 67.0502 88.6364 64.3835 88.6364C60.5653 88.6364 57.6108 90.4091 55.5199 93.9545C53.429 97.4848 52.3759 102.5 52.3608 109H52.6562C53.3987 107.621 54.3532 106.432 55.5199 105.432C56.7017 104.417 58.0426 103.629 59.5426 103.068C61.0426 102.492 62.6184 102.205 64.2699 102.205C66.8608 102.205 69.232 102.864 71.3835 104.182C73.535 105.485 75.2547 107.28 76.5426 109.568C77.8305 111.841 78.4744 114.439 78.4744 117.364C78.4744 120.136 77.8608 122.689 76.6335 125.023C75.4214 127.356 73.7093 129.212 71.4972 130.591C69.3002 131.97 66.7169 132.652 63.7472 132.636ZM63.7472 128.818C65.7775 128.818 67.5881 128.303 69.179 127.273C70.785 126.242 72.0502 124.864 72.9744 123.136C73.8987 121.394 74.3608 119.47 74.3608 117.364C74.3608 115.258 73.8987 113.348 72.9744 111.636C72.0502 109.924 70.785 108.561 69.179 107.545C67.5881 106.53 65.7775 106.023 63.7472 106.023C62.2017 106.023 60.7623 106.341 59.429 106.977C58.0956 107.598 56.9366 108.455 55.9517 109.545C54.982 110.621 54.2396 111.856 53.7244 113.25C53.2244 114.644 53.035 116.106 53.1562 117.636C53.3229 119.773 53.8759 121.689 54.8153 123.386C55.7699 125.068 57.0123 126.394 58.5426 127.364C60.0881 128.333 61.8229 128.818 63.7472 128.818ZM102.747 132.636C100.823 132.621 98.9441 132.235 97.1108 131.477C95.2775 130.705 93.6259 129.47 92.1562 127.773C90.6866 126.061 89.5199 123.803 88.6562 121C87.7926 118.197 87.3608 114.75 87.3608 110.659C87.3608 106.871 87.6941 103.402 88.3608 100.25C89.0275 97.0985 90.0275 94.3712 91.3608 92.0682C92.6941 89.7652 94.3608 87.9848 96.3608 86.7273C98.3608 85.4545 100.702 84.8182 103.384 84.8182C105.899 84.8182 108.118 85.3409 110.043 86.3864C111.967 87.4167 113.527 88.8561 114.724 90.7045C115.921 92.553 116.671 94.6818 116.974 97.0909H112.793C112.368 94.6364 111.361 92.6136 109.77 91.0227C108.179 89.4318 106.05 88.6364 103.384 88.6364C99.5653 88.6364 96.6108 90.4091 94.5199 93.9545C92.429 97.4848 91.3759 102.5 91.3608 109H91.6562C92.3987 107.621 93.3532 106.432 94.5199 105.432C95.7017 104.417 97.0426 103.629 98.5426 103.068C100.043 102.492 101.618 102.205 103.27 102.205C105.861 102.205 108.232 102.864 110.384 104.182C112.535 105.485 114.255 107.28 115.543 109.568C116.83 111.841 117.474 114.439 117.474 117.364C117.474 120.136 116.861 122.689 115.634 125.023C114.421 127.356 112.709 129.212 110.497 130.591C108.3 131.97 105.717 132.652 102.747 132.636ZM102.747 128.818C104.777 128.818 106.588 128.303 108.179 127.273C109.785 126.242 111.05 124.864 111.974 123.136C112.899 121.394 113.361 119.47 113.361 117.364C113.361 115.258 112.899 113.348 111.974 111.636C111.05 109.924 109.785 108.561 108.179 107.545C106.588 106.53 104.777 106.023 102.747 106.023C101.202 106.023 99.7623 106.341 98.429 106.977C97.0956 107.598 95.9366 108.455 94.9517 109.545C93.982 110.621 93.2396 111.856 92.7244 113.25C92.2244 114.644 92.035 116.106 92.1562 117.636C92.3229 119.773 92.8759 121.689 93.8153 123.386C94.7699 125.068 96.0123 126.394 97.5426 127.364C99.0881 128.333 100.823 128.818 102.747 128.818ZM150.634 123.364V121.25C150.634 119.508 150.982 117.939 151.679 116.545C152.376 115.136 153.368 114.023 154.656 113.205C155.944 112.386 157.474 111.977 159.247 111.977C161.035 111.977 162.565 112.386 163.838 113.205C165.111 114.023 166.088 115.136 166.77 116.545C167.452 117.939 167.793 119.508 167.793 121.25V123.364C167.793 125.106 167.444 126.674 166.747 128.068C166.065 129.462 165.088 130.576 163.815 131.409C162.543 132.227 161.02 132.636 159.247 132.636C157.444 132.636 155.899 132.227 154.611 131.409C153.338 130.576 152.353 129.462 151.656 128.068C150.974 126.674 150.634 125.106 150.634 123.364ZM154.202 121.25V123.364C154.202 125.076 154.618 126.538 155.452 127.75C156.3 128.947 157.565 129.545 159.247 129.545C160.884 129.545 162.118 128.947 162.952 127.75C163.785 126.538 164.202 125.076 164.202 123.364V121.25C164.202 119.538 163.793 118.083 162.974 116.886C162.156 115.674 160.914 115.068 159.247 115.068C157.596 115.068 156.338 115.674 155.474 116.886C154.626 118.083 154.202 119.538 154.202 121.25ZM127.179 96.2045V94.0909C127.179 92.3485 127.527 90.7803 128.224 89.3864C128.921 87.9924 129.914 86.8864 131.202 86.0682C132.49 85.2348 134.02 84.8182 135.793 84.8182C137.58 84.8182 139.111 85.2348 140.384 86.0682C141.656 86.8864 142.634 87.9924 143.315 89.3864C143.997 90.7803 144.338 92.3485 144.338 94.0909V96.2045C144.338 97.947 143.99 99.5227 143.293 100.932C142.611 102.326 141.634 103.432 140.361 104.25C139.088 105.068 137.565 105.477 135.793 105.477C133.99 105.477 132.444 105.068 131.156 104.25C129.884 103.432 128.899 102.326 128.202 100.932C127.52 99.5227 127.179 97.947 127.179 96.2045ZM130.747 94.0909V96.2045C130.747 97.9167 131.164 99.3788 131.997 100.591C132.846 101.788 134.111 102.386 135.793 102.386C137.429 102.386 138.664 101.788 139.497 100.591C140.33 99.3788 140.747 97.9167 140.747 96.2045V94.0909C140.747 92.3788 140.338 90.9242 139.52 89.7273C138.702 88.5151 137.459 87.9091 135.793 87.9091C134.141 87.9091 132.884 88.5151 132.02 89.7273C131.171 90.9242 130.747 92.3788 130.747 94.0909ZM129.27 132L161.247 85.4545H165.27L133.293 132H129.27Z" fill="black"/>
<ellipse cx="108" cy="108.5" rx="97" ry="97.5" stroke="white" stroke-width="6"/>
<defs>
<linearGradient id="paint0_linear_10_466" x1="108" y1="8" x2="108" y2="208" gradientUnits="userSpaceOnUse">
<stop stop-color="#08A652" stop-opacity="0.7"/>
<stop offset="0.64" stop-color="#A0E720"/>
<stop offset="1" stop-color="#21BA72"/>
</linearGradient>
<linearGradient id="paint1_linear_10_466" x1="108" y1="8" x2="108" y2="208" gradientUnits="userSpaceOnUse">
<stop stop-color="#0059AC"/>
<stop offset="0.46" stop-color="#6CB8FF"/>
<stop offset="1" stop-color="#00519D"/>
</linearGradient>
</defs>
</svg>
