<svg width="912" height="282" viewBox="0 0 912 282" fill="none" xmlns="http://www.w3.org/2000/svg">
<line x1="629.5" y1="267" x2="629.5" y2="5" stroke="white"/>
<line x1="308.5" y1="267.004" x2="308.5" y2="4.99628" stroke="white"/>
<line x1="628.993" y1="25.5" x2="766.007" y2="25.5" stroke="#0059AC" stroke-width="3"/>
<line x1="630.245" y1="24.8369" x2="472.245" y2="259.837" stroke="#0059AC" stroke-width="3"/>
<line x1="307.849" y1="24.7029" x2="471.609" y2="258.576" stroke="#0059AC" stroke-width="3"/>
<line x1="171.993" y1="25.5" x2="309.007" y2="25.5" stroke="#0059AC" stroke-width="3"/>
<path d="M911.707 259.707C912.098 259.317 912.098 258.683 911.707 258.293L905.343 251.929C904.953 251.538 904.319 251.538 903.929 251.929C903.538 252.319 903.538 252.953 903.929 253.343L909.586 259L903.929 264.657C903.538 265.047 903.538 265.681 903.929 266.071C904.319 266.462 904.953 266.462 905.343 266.071L911.707 259.707ZM23 260L911 260V258L23 258V260Z" fill="white"/>
<path d="M754.682 279.119C754.068 279.119 753.544 278.943 753.109 278.591C752.678 278.236 752.345 277.723 752.112 277.053C751.882 276.382 751.767 275.577 751.767 274.636C751.767 273.699 751.882 272.896 752.112 272.229C752.345 271.558 752.679 271.045 753.114 270.69C753.551 270.332 754.074 270.153 754.682 270.153C755.29 270.153 755.811 270.332 756.246 270.69C756.683 271.045 757.017 271.558 757.247 272.229C757.48 272.896 757.597 273.699 757.597 274.636C757.597 275.577 757.48 276.382 757.247 277.053C757.017 277.723 756.685 278.236 756.25 278.591C755.818 278.943 755.295 279.119 754.682 279.119ZM754.682 278.403C755.355 278.403 755.881 278.075 756.259 277.419C756.636 276.76 756.825 275.832 756.825 274.636C756.825 273.841 756.739 273.162 756.565 272.599C756.395 272.034 756.149 271.602 755.828 271.304C755.51 271.006 755.128 270.857 754.682 270.857C754.014 270.857 753.49 271.189 753.109 271.854C752.729 272.516 752.538 273.443 752.538 274.636C752.538 275.432 752.624 276.111 752.794 276.673C752.967 277.236 753.213 277.665 753.531 277.96C753.852 278.256 754.236 278.403 754.682 278.403ZM762.165 279.119C761.628 279.119 761.148 279.023 760.724 278.83C760.301 278.634 759.966 278.362 759.719 278.016C759.472 277.669 759.341 277.27 759.327 276.818H760.132C760.146 277.136 760.244 277.415 760.426 277.653C760.608 277.889 760.849 278.074 761.151 278.207C761.452 278.338 761.787 278.403 762.156 278.403C762.56 278.403 762.915 278.328 763.222 278.178C763.531 278.027 763.773 277.821 763.946 277.56C764.122 277.295 764.21 276.997 764.21 276.665C764.21 276.312 764.121 276.001 763.942 275.732C763.763 275.462 763.506 275.251 763.17 275.101C762.838 274.95 762.44 274.875 761.977 274.875H761.466V274.159H761.977C762.355 274.159 762.689 274.091 762.979 273.955C763.271 273.815 763.501 273.621 763.669 273.371C763.837 273.121 763.92 272.827 763.92 272.489C763.92 272.168 763.848 271.885 763.703 271.641C763.558 271.396 763.354 271.205 763.089 271.065C762.828 270.926 762.523 270.857 762.173 270.857C761.835 270.857 761.526 270.922 761.244 271.053C760.963 271.183 760.736 271.368 760.562 271.607C760.392 271.845 760.301 272.128 760.29 272.455H759.518C759.53 272 759.655 271.601 759.893 271.257C760.135 270.911 760.455 270.641 760.852 270.447C761.253 270.251 761.696 270.153 762.182 270.153C762.696 270.153 763.141 270.259 763.516 270.469C763.891 270.679 764.18 270.959 764.385 271.308C764.592 271.655 764.696 272.037 764.696 272.455C764.696 272.952 764.561 273.378 764.291 273.733C764.021 274.085 763.658 274.33 763.2 274.466V274.521C763.757 274.632 764.195 274.879 764.513 275.263C764.834 275.643 764.994 276.111 764.994 276.665C764.994 277.131 764.872 277.55 764.628 277.922C764.384 278.291 764.048 278.584 763.622 278.8C763.199 279.013 762.713 279.119 762.165 279.119ZM774.22 279V273.158H772.418C771.949 273.161 771.592 273.259 771.348 273.452C771.107 273.645 770.986 273.933 770.986 274.317C770.986 274.7 771.101 274.989 771.331 275.182C771.561 275.372 771.896 275.467 772.337 275.467H774.433V276.183H772.337C771.885 276.183 771.501 276.111 771.186 275.966C770.874 275.821 770.635 275.609 770.47 275.331C770.305 275.053 770.223 274.714 770.223 274.317C770.223 273.916 770.307 273.578 770.474 273.303C770.645 273.024 770.893 272.814 771.22 272.672C771.55 272.527 771.949 272.455 772.418 272.455H774.945V279H774.22ZM769.81 279L771.693 275.744H772.524L770.641 279H769.81ZM781.381 275.374V276.089H777.533V275.374H781.381ZM777.721 272.455V279H776.962V272.455H777.721ZM781.94 272.455V279H781.181V272.455H781.94ZM783.958 279V272.455H786.537C787.233 272.455 787.781 272.605 788.181 272.906C788.585 273.207 788.787 273.614 788.787 274.125C788.787 274.514 788.674 274.825 788.45 275.058C788.225 275.291 787.924 275.456 787.547 275.553C787.799 275.595 788.034 275.687 788.25 275.83C788.468 275.972 788.646 276.159 788.782 276.392C788.919 276.625 788.987 276.903 788.987 277.227C788.987 277.568 788.902 277.872 788.731 278.139C788.561 278.406 788.321 278.616 788.011 278.77C787.701 278.923 787.335 279 786.912 279H783.958ZM784.683 278.297H786.912C787.312 278.297 787.629 278.195 787.862 277.99C788.095 277.783 788.211 277.507 788.211 277.163C788.211 276.797 788.1 276.504 787.879 276.286C787.66 276.064 787.366 275.953 786.997 275.953H784.683V278.297ZM784.683 275.28H786.583C786.879 275.28 787.135 275.234 787.35 275.143C787.566 275.053 787.733 274.925 787.849 274.76C787.968 274.592 788.027 274.396 788.024 274.172C788.024 273.851 787.893 273.602 787.632 273.426C787.37 273.247 787.005 273.158 786.537 273.158H784.683V275.28Z" fill="white"/>
<path d="M454.682 279.119C454.068 279.119 453.544 278.943 453.109 278.591C452.678 278.236 452.345 277.723 452.112 277.053C451.882 276.382 451.767 275.577 451.767 274.636C451.767 273.699 451.882 272.896 452.112 272.229C452.345 271.558 452.679 271.045 453.114 270.69C453.551 270.332 454.074 270.153 454.682 270.153C455.29 270.153 455.811 270.332 456.246 270.69C456.683 271.045 457.017 271.558 457.247 272.229C457.48 272.896 457.597 273.699 457.597 274.636C457.597 275.577 457.48 276.382 457.247 277.053C457.017 277.723 456.685 278.236 456.25 278.591C455.818 278.943 455.295 279.119 454.682 279.119ZM454.682 278.403C455.355 278.403 455.881 278.075 456.259 277.419C456.636 276.76 456.825 275.832 456.825 274.636C456.825 273.841 456.739 273.162 456.565 272.599C456.395 272.034 456.149 271.602 455.828 271.304C455.51 271.006 455.128 270.857 454.682 270.857C454.014 270.857 453.49 271.189 453.109 271.854C452.729 272.516 452.538 273.443 452.538 274.636C452.538 275.432 452.624 276.111 452.794 276.673C452.967 277.236 453.213 277.665 453.531 277.96C453.852 278.256 454.236 278.403 454.682 278.403ZM459.331 279V278.416L462.182 275.212C462.554 274.791 462.854 274.432 463.081 274.134C463.308 273.835 463.473 273.56 463.575 273.307C463.68 273.054 463.733 272.791 463.733 272.518C463.733 272.186 463.655 271.896 463.499 271.649C463.345 271.399 463.134 271.205 462.864 271.065C462.594 270.926 462.29 270.857 461.952 270.857C461.594 270.857 461.28 270.933 461.01 271.087C460.743 271.24 460.536 271.45 460.388 271.717C460.24 271.984 460.166 272.291 460.166 272.638H459.403C459.403 272.155 459.514 271.727 459.736 271.355C459.96 270.98 460.266 270.686 460.652 270.473C461.041 270.26 461.482 270.153 461.973 270.153C462.459 270.153 462.891 270.259 463.268 270.469C463.646 270.676 463.943 270.959 464.159 271.317C464.375 271.675 464.483 272.075 464.483 272.518C464.483 272.839 464.426 273.151 464.312 273.452C464.202 273.753 464.01 274.088 463.737 274.457C463.464 274.827 463.087 275.278 462.604 275.812L460.439 278.229V278.284H464.756V279H459.331ZM473.998 279V273.158H472.195C471.726 273.161 471.37 273.259 471.125 273.452C470.884 273.645 470.763 273.933 470.763 274.317C470.763 274.7 470.878 274.989 471.108 275.182C471.338 275.372 471.674 275.467 472.114 275.467H474.211V276.183H472.114C471.662 276.183 471.279 276.111 470.963 275.966C470.651 275.821 470.412 275.609 470.248 275.331C470.083 275.053 470 274.714 470 274.317C470 273.916 470.084 273.578 470.252 273.303C470.422 273.024 470.671 272.814 470.998 272.672C471.327 272.527 471.726 272.455 472.195 272.455H474.722V279H473.998ZM469.587 279L471.471 275.744H472.301L470.418 279H469.587ZM481.159 275.374V276.089H477.311V275.374H481.159ZM477.498 272.455V279H476.74V272.455H477.498ZM481.717 272.455V279H480.958V272.455H481.717ZM483.736 279V272.455H486.314C487.01 272.455 487.558 272.605 487.959 272.906C488.362 273.207 488.564 273.614 488.564 274.125C488.564 274.514 488.452 274.825 488.227 275.058C488.003 275.291 487.702 275.456 487.324 275.553C487.577 275.595 487.811 275.687 488.027 275.83C488.246 275.972 488.423 276.159 488.56 276.392C488.696 276.625 488.764 276.903 488.764 277.227C488.764 277.568 488.679 277.872 488.509 278.139C488.338 278.406 488.098 278.616 487.788 278.77C487.479 278.923 487.112 279 486.689 279H483.736ZM484.46 278.297H486.689C487.089 278.297 487.406 278.195 487.639 277.99C487.872 277.783 487.989 277.507 487.989 277.163C487.989 276.797 487.878 276.504 487.656 276.286C487.438 276.064 487.143 275.953 486.774 275.953H484.46V278.297ZM484.46 275.28H486.361C486.656 275.28 486.912 275.234 487.128 275.143C487.344 275.053 487.51 274.925 487.626 274.76C487.746 274.592 487.804 274.396 487.801 274.172C487.801 273.851 487.67 273.602 487.409 273.426C487.148 273.247 486.783 273.158 486.314 273.158H484.46V275.28Z" fill="white"/>
<path d="M165.939 279V273.158H164.136C163.668 273.161 163.311 273.259 163.067 273.452C162.825 273.645 162.705 273.933 162.705 274.317C162.705 274.7 162.82 274.989 163.05 275.182C163.28 275.372 163.615 275.467 164.055 275.467H166.152V276.183H164.055C163.604 276.183 163.22 276.111 162.905 275.966C162.592 275.821 162.354 275.609 162.189 275.331C162.024 275.053 161.942 274.714 161.942 274.317C161.942 273.916 162.026 273.578 162.193 273.303C162.364 273.024 162.612 272.814 162.939 272.672C163.268 272.527 163.668 272.455 164.136 272.455H166.663V279H165.939ZM161.528 279L163.412 275.744H164.243L162.359 279H161.528ZM173.1 275.374V276.089H169.252V275.374H173.1ZM169.44 272.455V279H168.681V272.455H169.44ZM173.658 272.455V279H172.9V272.455H173.658ZM175.677 279V272.455H178.255C178.951 272.455 179.5 272.605 179.9 272.906C180.304 273.207 180.505 273.614 180.505 274.125C180.505 274.514 180.393 274.825 180.169 275.058C179.944 275.291 179.643 275.456 179.265 275.553C179.518 275.595 179.752 275.687 179.968 275.83C180.187 275.972 180.365 276.159 180.501 276.392C180.637 276.625 180.706 276.903 180.706 277.227C180.706 277.568 180.62 277.872 180.45 278.139C180.279 278.406 180.039 278.616 179.73 278.77C179.42 278.923 179.054 279 178.63 279H175.677ZM176.402 278.297H178.63C179.031 278.297 179.348 278.195 179.581 277.99C179.814 277.783 179.93 277.507 179.93 277.163C179.93 276.797 179.819 276.504 179.598 276.286C179.379 276.064 179.085 275.953 178.716 275.953H176.402V278.297ZM176.402 275.28H178.302C178.598 275.28 178.853 275.234 179.069 275.143C179.285 275.053 179.451 274.925 179.568 274.76C179.687 274.592 179.745 274.396 179.743 274.172C179.743 273.851 179.612 273.602 179.35 273.426C179.089 273.247 178.724 273.158 178.255 273.158H176.402V275.28Z" fill="white"/>
<path d="M32.0587 4.29338C31.6681 3.90285 31.035 3.90285 30.6445 4.29338L24.2805 10.6573C23.89 11.0479 23.89 11.681 24.2805 12.0715C24.671 12.4621 25.3042 12.4621 25.6947 12.0715L31.3516 6.41469L37.0084 12.0715C37.3989 12.4621 38.0321 12.4621 38.4226 12.0715C38.8132 11.681 38.8132 11.0479 38.4226 10.6573L32.0587 4.29338ZM32.3516 267L32.3516 5.00047H30.3516L30.3516 267H32.3516Z" fill="white"/>
<path d="M11.6818 263.119C11.0682 263.119 10.544 262.943 10.1094 262.591C9.67756 262.236 9.34517 261.723 9.11222 261.053C8.8821 260.382 8.76705 259.577 8.76705 258.636C8.76705 257.699 8.8821 256.896 9.11222 256.229C9.34517 255.558 9.67898 255.045 10.1136 254.69C10.5511 254.332 11.0739 254.153 11.6818 254.153C12.2898 254.153 12.8111 254.332 13.2457 254.69C13.6832 255.045 14.017 255.558 14.2472 256.229C14.4801 256.896 14.5966 257.699 14.5966 258.636C14.5966 259.577 14.4801 260.382 14.2472 261.053C14.017 261.723 13.6847 262.236 13.25 262.591C12.8182 262.943 12.2955 263.119 11.6818 263.119ZM11.6818 262.403C12.3551 262.403 12.8807 262.075 13.2585 261.419C13.6364 260.76 13.8253 259.832 13.8253 258.636C13.8253 257.841 13.7386 257.162 13.5653 256.599C13.3949 256.034 13.1491 255.602 12.8281 255.304C12.5099 255.006 12.1278 254.857 11.6818 254.857C11.0142 254.857 10.4901 255.189 10.1094 255.854C9.72869 256.516 9.53835 257.443 9.53835 258.636C9.53835 259.432 9.62358 260.111 9.79403 260.673C9.96733 261.236 10.2131 261.665 10.5312 261.96C10.8523 262.256 11.2358 262.403 11.6818 262.403Z" fill="white"/>
<path d="M4.97159 209V208.416L7.82244 205.212C8.1946 204.791 8.49432 204.432 8.72159 204.134C8.94886 203.835 9.11364 203.56 9.21591 203.307C9.32102 203.054 9.37358 202.791 9.37358 202.518C9.37358 202.186 9.29545 201.896 9.1392 201.649C8.9858 201.399 8.77415 201.205 8.50426 201.065C8.23438 200.926 7.9304 200.857 7.59233 200.857C7.23438 200.857 6.92045 200.933 6.65057 201.087C6.38352 201.24 6.17614 201.45 6.02841 201.717C5.88068 201.984 5.80682 202.291 5.80682 202.638H5.04403C5.04403 202.155 5.15483 201.727 5.37642 201.355C5.60085 200.98 5.90625 200.686 6.29261 200.473C6.68182 200.26 7.12216 200.153 7.61364 200.153C8.09943 200.153 8.53125 200.259 8.90909 200.469C9.28693 200.676 9.58381 200.959 9.79972 201.317C10.0156 201.675 10.1236 202.075 10.1236 202.518C10.1236 202.839 10.0668 203.151 9.95312 203.452C9.84233 203.753 9.65057 204.088 9.37784 204.457C9.10511 204.827 8.72727 205.278 8.24432 205.812L6.07955 208.229V208.284H10.3963V209H4.97159ZM15.006 209.119C14.3924 209.119 13.8683 208.943 13.4336 208.591C13.0018 208.236 12.6694 207.723 12.4364 207.053C12.2063 206.382 12.0913 205.577 12.0913 204.636C12.0913 203.699 12.2063 202.896 12.4364 202.229C12.6694 201.558 13.0032 201.045 13.4379 200.69C13.8754 200.332 14.3981 200.153 15.006 200.153C15.614 200.153 16.1353 200.332 16.57 200.69C17.0075 201.045 17.3413 201.558 17.5714 202.229C17.8043 202.896 17.9208 203.699 17.9208 204.636C17.9208 205.577 17.8043 206.382 17.5714 207.053C17.3413 207.723 17.0089 208.236 16.5742 208.591C16.1424 208.943 15.6197 209.119 15.006 209.119ZM15.006 208.403C15.6793 208.403 16.2049 208.075 16.5827 207.419C16.9606 206.76 17.1495 205.832 17.1495 204.636C17.1495 203.841 17.0629 203.162 16.8896 202.599C16.7191 202.034 16.4734 201.602 16.1523 201.304C15.8342 201.006 15.4521 200.857 15.006 200.857C14.3384 200.857 13.8143 201.189 13.4336 201.854C13.0529 202.516 12.8626 203.443 12.8626 204.636C12.8626 205.432 12.9478 206.111 13.1183 206.673C13.2915 207.236 13.5373 207.665 13.8555 207.96C14.1765 208.256 14.56 208.403 15.006 208.403Z" fill="white"/>
<line x1="23" y1="204.5" x2="32" y2="204.5" stroke="white"/>
<path d="M4.76278 157.125V156.477L8.65341 150.273H9.13068V151.359H8.77699L5.65341 156.354V156.409H10.7543V157.125H4.76278ZM8.83665 159V156.92V156.622V150.273H9.59517V159H8.83665ZM15.1935 159.119C14.5799 159.119 14.0558 158.943 13.6211 158.591C13.1893 158.236 12.8569 157.723 12.6239 157.053C12.3938 156.382 12.2788 155.577 12.2788 154.636C12.2788 153.699 12.3938 152.896 12.6239 152.229C12.8569 151.558 13.1907 151.045 13.6254 150.69C14.0629 150.332 14.5856 150.153 15.1935 150.153C15.8015 150.153 16.3228 150.332 16.7575 150.69C17.195 151.045 17.5288 151.558 17.7589 152.229C17.9918 152.896 18.1083 153.699 18.1083 154.636C18.1083 155.577 17.9918 156.382 17.7589 157.053C17.5288 157.723 17.1964 158.236 16.7617 158.591C16.3299 158.943 15.8072 159.119 15.1935 159.119ZM15.1935 158.403C15.8668 158.403 16.3924 158.075 16.7702 157.419C17.1481 156.76 17.337 155.832 17.337 154.636C17.337 153.841 17.2504 153.162 17.0771 152.599C16.9066 152.034 16.6609 151.602 16.3398 151.304C16.0217 151.006 15.6396 150.857 15.1935 150.857C14.5259 150.857 14.0018 151.189 13.6211 151.854C13.2404 152.516 13.0501 153.443 13.0501 154.636C13.0501 155.432 13.1353 156.111 13.3058 156.673C13.479 157.236 13.7248 157.665 14.043 157.96C14.364 158.256 14.7475 158.403 15.1935 158.403Z" fill="white"/>
<line x1="23" y1="154.5" x2="32" y2="154.5" stroke="white"/>
<path d="M7.72017 109.119C7.35938 109.116 7.0071 109.044 6.66335 108.902C6.3196 108.757 6.00994 108.526 5.73438 108.207C5.45881 107.886 5.24006 107.463 5.07812 106.938C4.91619 106.412 4.83523 105.766 4.83523 104.999C4.83523 104.288 4.89773 103.638 5.02273 103.047C5.14773 102.456 5.33523 101.945 5.58523 101.513C5.83523 101.081 6.14773 100.747 6.52273 100.511C6.89773 100.273 7.33665 100.153 7.83949 100.153C8.31108 100.153 8.72727 100.251 9.08807 100.447C9.44886 100.641 9.74148 100.911 9.96591 101.257C10.1903 101.604 10.331 102.003 10.3878 102.455H9.60369C9.52415 101.994 9.33523 101.615 9.03693 101.317C8.73864 101.018 8.33949 100.869 7.83949 100.869C7.12358 100.869 6.5696 101.202 6.17756 101.866C5.78551 102.528 5.58807 103.469 5.58523 104.688H5.64062C5.77983 104.429 5.95881 104.206 6.17756 104.018C6.39915 103.828 6.65057 103.68 6.93182 103.575C7.21307 103.467 7.50852 103.413 7.81818 103.413C8.30398 103.413 8.74858 103.537 9.15199 103.784C9.5554 104.028 9.87784 104.365 10.1193 104.794C10.3608 105.22 10.4815 105.707 10.4815 106.256C10.4815 106.776 10.3665 107.254 10.1364 107.692C9.90909 108.129 9.58807 108.477 9.1733 108.736C8.76136 108.994 8.27699 109.122 7.72017 109.119ZM7.72017 108.403C8.10085 108.403 8.44034 108.307 8.73864 108.114C9.03977 107.92 9.27699 107.662 9.45028 107.338C9.62358 107.011 9.71023 106.651 9.71023 106.256C9.71023 105.861 9.62358 105.503 9.45028 105.182C9.27699 104.861 9.03977 104.605 8.73864 104.415C8.44034 104.224 8.10085 104.129 7.72017 104.129C7.4304 104.129 7.16051 104.189 6.91051 104.308C6.66051 104.425 6.44318 104.585 6.25852 104.79C6.0767 104.991 5.9375 105.223 5.84091 105.484C5.74716 105.746 5.71165 106.02 5.73438 106.307C5.76562 106.707 5.86932 107.067 6.04545 107.385C6.22443 107.7 6.45739 107.949 6.74432 108.131C7.03409 108.312 7.35938 108.403 7.72017 108.403ZM14.9943 109.119C14.3807 109.119 13.8565 108.943 13.4219 108.591C12.9901 108.236 12.6577 107.723 12.4247 107.053C12.1946 106.382 12.0795 105.577 12.0795 104.636C12.0795 103.699 12.1946 102.896 12.4247 102.229C12.6577 101.558 12.9915 101.045 13.4261 100.69C13.8636 100.332 14.3864 100.153 14.9943 100.153C15.6023 100.153 16.1236 100.332 16.5582 100.69C16.9957 101.045 17.3295 101.558 17.5597 102.229C17.7926 102.896 17.9091 103.699 17.9091 104.636C17.9091 105.577 17.7926 106.382 17.5597 107.053C17.3295 107.723 16.9972 108.236 16.5625 108.591C16.1307 108.943 15.608 109.119 14.9943 109.119ZM14.9943 108.403C15.6676 108.403 16.1932 108.075 16.571 107.419C16.9489 106.76 17.1378 105.832 17.1378 104.636C17.1378 103.841 17.0511 103.162 16.8778 102.599C16.7074 102.034 16.4616 101.602 16.1406 101.304C15.8224 101.006 15.4403 100.857 14.9943 100.857C14.3267 100.857 13.8026 101.189 13.4219 101.854C13.0412 102.516 12.8509 103.443 12.8509 104.636C12.8509 105.432 12.9361 106.111 13.1065 106.673C13.2798 107.236 13.5256 107.665 13.8438 107.96C14.1648 108.256 14.5483 108.403 14.9943 108.403Z" fill="white"/>
<line x1="23" y1="104.5" x2="32" y2="104.5" stroke="white"/>
<path d="M7.66903 59.1193C7.11222 59.1193 6.61648 59.0142 6.18182 58.804C5.74716 58.5937 5.40625 58.3068 5.15909 57.9432C4.91193 57.5767 4.78835 57.1634 4.78835 56.7031C4.78835 56.3423 4.86364 56.0057 5.0142 55.6932C5.16477 55.3778 5.37216 55.1136 5.63636 54.9006C5.90057 54.6847 6.19744 54.544 6.52699 54.4787V54.4318C6.09801 54.3068 5.75284 54.0611 5.49148 53.6946C5.23011 53.3253 5.10085 52.9062 5.10369 52.4375C5.10085 52.0028 5.21165 51.6136 5.43608 51.2699C5.66051 50.9261 5.96591 50.6548 6.35227 50.456C6.74148 50.2543 7.1804 50.1534 7.66903 50.1534C8.15483 50.1534 8.59091 50.2543 8.97727 50.456C9.36364 50.6548 9.66903 50.9261 9.89347 51.2699C10.1207 51.6136 10.2358 52.0028 10.2386 52.4375C10.2358 52.9034 10.1037 53.3224 9.84233 53.6946C9.58097 54.0639 9.23722 54.3097 8.81108 54.4318V54.4787C9.14063 54.5412 9.43608 54.6804 9.69744 54.8963C9.95881 55.1122 10.1662 55.3778 10.3196 55.6932C10.473 56.0057 10.5497 56.3423 10.5497 56.7031C10.5497 57.1634 10.4247 57.5767 10.1747 57.9432C9.92756 58.3068 9.58665 58.5937 9.15199 58.804C8.72017 59.0142 8.22585 59.1193 7.66903 59.1193ZM7.66903 58.4034C8.08381 58.4034 8.44744 58.3295 8.75994 58.1818C9.07528 58.0312 9.32102 57.8253 9.49716 57.5639C9.67614 57.3026 9.76562 57.0028 9.76562 56.6648C9.76562 56.3153 9.6733 56.0043 9.48864 55.7315C9.30398 55.456 9.05398 55.2386 8.73864 55.0795C8.4233 54.9176 8.06676 54.8366 7.66903 54.8366C7.27131 54.8366 6.91335 54.9176 6.59517 55.0795C6.27983 55.2386 6.02983 55.456 5.84517 55.7315C5.66335 56.0043 5.57244 56.3153 5.57244 56.6648C5.57244 57.0028 5.65909 57.3026 5.83239 57.5639C6.00852 57.8253 6.25426 58.0312 6.5696 58.1818C6.88778 58.3295 7.25426 58.4034 7.66903 58.4034ZM7.66903 54.1548C8.00994 54.1548 8.31534 54.0824 8.58523 53.9375C8.85511 53.7926 9.06818 53.5952 9.22443 53.3452C9.38352 53.0923 9.46449 52.8054 9.46733 52.4844C9.46449 52.1662 9.38494 51.8849 9.22869 51.6406C9.07244 51.3935 8.85938 51.2017 8.58949 51.0653C8.32244 50.9261 8.01563 50.8565 7.66903 50.8565C7.32244 50.8565 7.01278 50.9261 6.74006 51.0653C6.47017 51.2017 6.2571 51.3935 6.10085 51.6406C5.94744 51.8849 5.87216 52.1662 5.875 52.4844C5.87216 52.8054 5.94886 53.0923 6.10511 53.3452C6.2642 53.5952 6.47869 53.7926 6.74858 53.9375C7.02131 54.0824 7.32813 54.1548 7.66903 54.1548ZM15.0295 59.1193C14.4158 59.1193 13.8917 58.9432 13.457 58.5909C13.0252 58.2358 12.6928 57.723 12.4599 57.0526C12.2298 56.3821 12.1147 55.5767 12.1147 54.6364C12.1147 53.6989 12.2298 52.8963 12.4599 52.2287C12.6928 51.5582 13.0266 51.0455 13.4613 50.6903C13.8988 50.3324 14.4215 50.1534 15.0295 50.1534C15.6374 50.1534 16.1587 50.3324 16.5934 50.6903C17.0309 51.0455 17.3647 51.5582 17.5948 52.2287C17.8278 52.8963 17.9442 53.6989 17.9442 54.6364C17.9442 55.5767 17.8278 56.3821 17.5948 57.0526C17.3647 57.723 17.0323 58.2358 16.5977 58.5909C16.1658 58.9432 15.6431 59.1193 15.0295 59.1193ZM15.0295 58.4034C15.7028 58.4034 16.2283 58.0753 16.6062 57.419C16.984 56.7599 17.1729 55.8324 17.1729 54.6364C17.1729 53.8409 17.0863 53.1619 16.913 52.5994C16.7425 52.0341 16.4968 51.6023 16.1758 51.304C15.8576 51.0057 15.4755 50.8565 15.0295 50.8565C14.3619 50.8565 13.8377 51.1889 13.457 51.8537C13.0763 52.5156 12.886 53.4432 12.886 54.6364C12.886 55.4318 12.9712 56.1108 13.1417 56.6733C13.315 57.2358 13.5607 57.6648 13.8789 57.9602C14.1999 58.2557 14.5835 58.4034 15.0295 58.4034Z" fill="white"/>
<line x1="23" y1="54.5" x2="32" y2="54.5" stroke="white"/>
<path d="M3.66477 3.27273V12H2.8679V4.10795H2.81676L0.771307 5.46733V4.64062L2.83381 3.27273H3.66477ZM9.02557 12.1193C8.41193 12.1193 7.88778 11.9432 7.45312 11.5909C7.02131 11.2358 6.68892 10.723 6.45597 10.0526C6.22585 9.3821 6.1108 8.5767 6.1108 7.63636C6.1108 6.69886 6.22585 5.89631 6.45597 5.22869C6.68892 4.55824 7.02273 4.04545 7.45739 3.69034C7.89489 3.33239 8.41761 3.15341 9.02557 3.15341C9.63352 3.15341 10.1548 3.33239 10.5895 3.69034C11.027 4.04545 11.3608 4.55824 11.5909 5.22869C11.8239 5.89631 11.9403 6.69886 11.9403 7.63636C11.9403 8.5767 11.8239 9.3821 11.5909 10.0526C11.3608 10.723 11.0284 11.2358 10.5938 11.5909C10.1619 11.9432 9.6392 12.1193 9.02557 12.1193ZM9.02557 11.4034C9.69886 11.4034 10.2244 11.0753 10.6023 10.419C10.9801 9.75994 11.169 8.83239 11.169 7.63636C11.169 6.84091 11.0824 6.16193 10.9091 5.59943C10.7386 5.03409 10.4929 4.60227 10.1719 4.30398C9.85369 4.00568 9.47159 3.85653 9.02557 3.85653C8.35795 3.85653 7.83381 4.18892 7.45312 4.85369C7.07244 5.51562 6.8821 6.44318 6.8821 7.63636C6.8821 8.43182 6.96733 9.1108 7.13778 9.6733C7.31108 10.2358 7.55682 10.6648 7.875 10.9602C8.19602 11.2557 8.57955 11.4034 9.02557 11.4034ZM16.3849 12.1193C15.7713 12.1193 15.2472 11.9432 14.8125 11.5909C14.3807 11.2358 14.0483 10.723 13.8153 10.0526C13.5852 9.3821 13.4702 8.5767 13.4702 7.63636C13.4702 6.69886 13.5852 5.89631 13.8153 5.22869C14.0483 4.55824 14.3821 4.04545 14.8168 3.69034C15.2543 3.33239 15.777 3.15341 16.3849 3.15341C16.9929 3.15341 17.5142 3.33239 17.9489 3.69034C18.3864 4.04545 18.7202 4.55824 18.9503 5.22869C19.1832 5.89631 19.2997 6.69886 19.2997 7.63636C19.2997 8.5767 19.1832 9.3821 18.9503 10.0526C18.7202 10.723 18.3878 11.2358 17.9531 11.5909C17.5213 11.9432 16.9986 12.1193 16.3849 12.1193ZM16.3849 11.4034C17.0582 11.4034 17.5838 11.0753 17.9616 10.419C18.3395 9.75994 18.5284 8.83239 18.5284 7.63636C18.5284 6.84091 18.4418 6.16193 18.2685 5.59943C18.098 5.03409 17.8523 4.60227 17.5312 4.30398C17.2131 4.00568 16.831 3.85653 16.3849 3.85653C15.7173 3.85653 15.1932 4.18892 14.8125 4.85369C14.4318 5.51562 14.2415 6.44318 14.2415 7.63636C14.2415 8.43182 14.3267 9.1108 14.4972 9.6733C14.6705 10.2358 14.9162 10.6648 15.2344 10.9602C15.5554 11.2557 15.9389 11.4034 16.3849 11.4034Z" fill="white"/>
</svg>
