<svg width="28" height="28" viewBox="0 0 28 28" fill="none" xmlns="http://www.w3.org/2000/svg">
<path d="M7 17.3717C6.52167 17.3717 6.125 16.975 6.125 16.4967V11.4916C6.125 11.0133 6.52167 10.6166 7 10.6166C7.47833 10.6166 7.875 11.0133 7.875 11.4916V16.4967C7.875 16.9867 7.47833 17.3717 7 17.3717Z" fill="black"/>
<path d="M10.5 19.0399C10.0217 19.0399 9.625 18.6433 9.625 18.1649V9.83492C9.625 9.35658 10.0217 8.95992 10.5 8.95992C10.9783 8.95992 11.375 9.35658 11.375 9.83492V18.1649C11.375 18.6549 10.9783 19.0399 10.5 19.0399Z" fill="black"/>
<path d="M14 20.7083C13.5217 20.7083 13.125 20.3117 13.125 19.8333V8.16667C13.125 7.68834 13.5217 7.29167 14 7.29167C14.4783 7.29167 14.875 7.68834 14.875 8.16667V19.8333C14.875 20.3117 14.4783 20.7083 14 20.7083Z" fill="black"/>
<path d="M17.5 19.0399C17.0217 19.0399 16.625 18.6433 16.625 18.1649V9.83492C16.625 9.35658 17.0217 8.95992 17.5 8.95992C17.9783 8.95992 18.375 9.35658 18.375 9.83492V18.1649C18.375 18.6549 17.9783 19.0399 17.5 19.0399Z" fill="black"/>
<path d="M21 17.3717C20.5217 17.3717 20.125 16.975 20.125 16.4967V11.4916C20.125 11.0133 20.5217 10.6166 21 10.6166C21.4783 10.6166 21.875 11.0133 21.875 11.4916V16.4967C21.875 16.9867 21.4783 17.3717 21 17.3717Z" fill="black"/>
<path d="M14 26.5417C7.08166 26.5417 1.45833 20.9183 1.45833 14C1.45833 7.08166 7.08166 1.45833 14 1.45833C20.9183 1.45833 26.5417 7.08166 26.5417 14C26.5417 20.9183 20.9183 26.5417 14 26.5417ZM14 3.20833C8.04999 3.20833 3.20833 8.04999 3.20833 14C3.20833 19.95 8.04999 24.7917 14 24.7917C19.95 24.7917 24.7917 19.95 24.7917 14C24.7917 8.04999 19.95 3.20833 14 3.20833Z" fill="black"/>
</svg>
